<svg width="21" height="20" fill="none" xmlns="http://www.w3.org/2000/svg"><path d="m9.988 4.606.762.896.762-.896c.38-.448.828-.79 1.35-1.034a3.808 3.808 0 0 1 1.638-.364c1.057 0 1.887.344 2.564 1.02.676.676 1.02 1.507 1.02 2.564 0 .524-.089 1.036-.267 1.542-.171.487-.49 1.068-.995 1.747-.503.677-1.196 1.462-2.092 2.358-.9.9-2.045 1.977-3.44 3.234h-.001l-.539.484-.539-.483v-.001a93.282 93.282 0 0 1-3.441-3.234c-.896-.896-1.59-1.681-2.092-2.358-.504-.679-.824-1.26-.995-1.747a4.605 4.605 0 0 1-.266-1.542c0-1.057.343-1.888 1.02-2.564.676-.676 1.506-1.02 2.563-1.02.576 0 1.119.121 1.639.364.52.244.969.586 1.349 1.034Z" fill="#fff" stroke="#fff" stroke-width="2"/></svg>